<svg xmlns="http://www.w3.org/2000/svg"  viewBox="0 0 512 512" width="48px" height="48px"><path fill="#F6851F" d="M294.3 213.3c-.7-16.5-2.5-32.4-6.2-48.5-6-26.4-12.4-54.2-25.2-78.3-5.2-9.9-10.7-18-23.1-17.4-11.1.6-21.5 4.8-31.8 8.6-11.8 4.3-24 6.9-35.6 11.7-12.1 5-23.4 11.5-33.7 19.5-10.3 8-19.7 17.1-29.5 25.7-8.8 7.6-18.9 16.7-20.3 28.8 0 .4-.1.7-.2 1.1 2 2.1 2.5 5.8.4 8.1.6 1.9 1.3 3.8 2.2 5.5 2.8 5.8 6.4 11.2 9.9 16.5 7.7 11.4 15.9 22.6 24.7 33.2 21.7 26.3 50.5 59.6 86.1 71.1 1.8-.4 3.8 0 5.1 1.5 2.6.7 4.1 3 4.4 5.3 6.3-1.4 12.4-3.3 18.7-4.9 12.9-3.4 26.5-6.6 36.5-16.3 7.9-7.7 12.4-18.9 21.4-25.5C295.2 244 294.9 228.6 294.3 213.3zM146.9 156.5c0-.7 0-1.5.2-2.2.5-1.5.5-1.7 1.5-3 .7-1 1.9-1.7 3-2.1 1.2-.5 2.5-.6 3.8-.6 1.6 0 3 .3 4.3 1.4 1.1 1 1.8 2.4 2 3.9.1 1.5-.4 3.1-1.4 4.3-.8 1-2.2 1.8-3.5 1.9-1 .9-2.2 1.5-3.5 1.6-1.5.1-3.1-.4-4.3-1.4C147.8 159.5 146.8 157.9 146.9 156.5zM159.8 179.2c-.2.2-.5.4-.8.6-.4.2-.9.4-1.3.7-.3.2-.6.3-1 .4-1 .3-2.1.5-3.1.2-1.6-.5-2.7-1.1-3.7-2.5-1.5-1.9-1.3-5.4.5-7.2.5-.5 1-.9 1.6-1.3 1-.6 2.1-1.2 3.2-1.7 1-.5 2.2-.8 3.3-.9 3.2-.1 6 2.1 6.2 5.3C165 175.9 162.8 178.8 159.8 179.2zM183.6 133.5c-1.1-.9-2-2.5-2-3.9v-2.9c0-1.6.3-3 1.4-4.3 1-1.1 2.4-1.8 3.9-2 1.5-.1 3.1.4 4.3 1.4 1.1.9 2 2.5 2 3.9v2.9c0 1.6-.3 3-1.4 4.3-1 1.1-2.4 1.8-3.9 2C186.3 135.1 184.8 134.6 183.6 133.5zM195.8 207.6c-7.4 0-8.4-11.6-.9-11.6C202.3 196.1 203.2 207.6 195.8 207.6zM209.1 175.7c-.9 1.1-2.5 2-3.9 2h-1.6c-1.6 0-3-.3-4.3-1.4-1.1-1-1.8-2.4-2-3.9-.1-1.5.4-3.1 1.4-4.3.9-1.1 2.5-2 3.9-2h1.6c1.6 0 3 .3 4.3 1.4 1.1 1 1.8 2.4 2 3.9C210.7 172.9 210.2 174.5 209.1 175.7zM219.4 130.2c-7.4 0-8.4-11.6-.9-11.6C226 118.7 226.9 130.2 219.4 130.2zM256.5 175.7c-.9 1-2.5 2-3.9 2-1.6-.1-2.1-.1-3.6-.7-.6-.2-1.3-.8-1.7-1.1-.1-.1-.1-.1-.2-.2-.7-.2-1.3-.5-1.9-1.1-1.1-1-1.8-2.4-2-3.9-.1-1.5.4-3.1 1.4-4.3.9-1 2.5-2 3.9-2 1.6.1 2.1.1 3.6.7.6.2 1.3.8 1.7 1.1.1.1.1.1.2.2.7.2 1.3.5 1.9 1.1 1.1 1 1.8 2.4 2 3.9C258.1 172.9 257.5 174.5 256.5 175.7zM367.6 156.1c-.3-14.8.5-29.6-.4-44.4-.6-8.9.2-21.2-8.7-26.3-8.2-4.6-17.8-6.2-27.1-6.8-8.4-.6-17.1-.4-25.4 1.4-5.9 1.3-12 2.8-17.5 5.4-1.6.8-2.9 1.6-4.1 2.7-.5 2.1-2.1 3.9-5 4.1 0 0 .1 0 .1-.1-.4.2-.7.3-1.1.4 9.9 22.8 15.8 47.2 21.2 71.3 3.6 16.1 5.5 32 6.2 48.5.3 8.1.6 16.3 1.1 24.4 6-.6 12-1.4 18-2.4 9.4-1.5 17.1-2.7 23.5-9.6 8.4-8.9 14-20.3 16.9-32.1C368.3 180.3 367.8 168.7 367.6 156.1zM174.1 366.4c-3 3.2-6.6 5.9-10.7 7.9-10.7 5.3-22 9.1-33.8 10.8-9.2 1.3-18.5 1.7-27.8 2.6.1.2.3.3.4.5 7.5 11.1 18.2 20.6 30.8 25.3 2.6 1 5.4 2.2 7.4 1.5 2.3-.9 4.7-1.6 7.1-2.3 4.3-1.1 8.7-1.9 13-3.1 9.5-2.6 18.2-7.8 20.1-18.4C182.1 383.1 180.7 372.1 174.1 366.4zM150.9 272.2c-12.8-12.7-25.2-26.1-36.5-40.2-9.9-12.3-19.6-25.1-27.8-38.7-1.1-1.8-2.9-4.6-4.6-7.8-.5 0-.9 0-1.4-.1-.3-.1-.3-.1-.3-.1 0 0 0 .1-.4.3.4-.2-1.3.9-1.6 1.1-2.2 2.1-4.2 4.5-5.9 7-4.3 6.2-7.7 13.1-10.8 20-6.1 13.4-10.6 26.2-13.9 40.6-1.4 6-2.9 12.7-1.7 18.9 1 5.3 5.5 8 10 10.2 6.9 3.3 13.6 6.8 20.3 10.5 13.8 7.6 27.5 15.5 41.8 22.2 13.7 6.4 29.8 14 45.3 13.5 5.4-.2 10.9-1.2 14.4-5.2 4.6-5.2 5.6-12.7 5.7-19.5 0-2.4 1.3-4.2 2.9-5.1C173.2 292.4 161.6 282.7 150.9 272.2zM215.6 407.3c-5.6-6.6-16.4-8.5-24.6-8.6-.2 0-.4 0-.6 0-2.6 6.8-7.3 12.6-13.4 16.5 11.8 3.3 23.1 11.7 35.4 9.8C220 423.8 219.4 411.8 215.6 407.3zM168.9 340.8c-.8.1-1.6.2-2.5.3-19.2 1.3-38.8-7.4-55.7-15.5-14-6.7-27.4-14.6-41-21.9-6.1-3.3-12.5-6.2-18.7-9.5.3 19.6 2.8 38.3 9.1 57 2.3 6.8 4.3 14.1 7.9 20.4 1.7 3 3.7 6 6.6 8 3.1 2.1 5.2.2 9.5-.8 20.8-4.6 43.5-1.7 63.5-10.2 7-3 14.7-5.3 19.4-11.7 1.7-2.3 3.3-4.9 4.1-7.6.4-1.5.9-3 1-4.5 0-.1 0-.3.1-.3C170.2 343.7 169.2 342.3 168.9 340.8zM233.3 407.2c-.1-.3-.4-1.4-.5-1.6-.2-.4-.3-.9-.5-1.3-.1-.1-.8-1.3-.9-1.6-.2-.2-.3-.4-.5-.7-.1-.1-.2-.2-.3-.3-.3-.3-.6-.5-.9-.7 0 0 0 0-.1 0-.4-.2-1.3-.5-1.2-.5-.1 0-.2 0-.3-.1 0 0 0 0 0 0-.2 0-.4 0-.6 0-.2.1-.6.2-.8.2-.3.1-.7.4-1.2.7 1.4 2.1 2.5 4.5 3.3 7 1.4-.7 3-.8 4.6-.4C233.4 407.8 233.4 407.5 233.3 407.2zM464.8 215.1c-.5-1-1.3-2.7-2.3-3.4-.6.7-1.1 1.4-1.4 2.2-1.7 3.1-5 3.6-7.6 2.5-4.2 5.3-9 9.9-14.8 13.2 2.2.4 4.1 2 4 5.1-.2 6.4-3.3 14.6-.3 20.6 3.4 7 11.9-1 14.9-4.6 5.5-6.7 8.2-15.4 8.9-24C466.5 222.8 466.5 218.7 464.8 215.1zM439 267.9c-2.1-1.4-4-3.2-5.5-5.3-2.3 2.6-3.9 5.4-3.4 9.3.2.3.5.6.7 1 .5.9.1 1.1 1 .8 1.6-.5 3-1.2 4.4-2.2 1.2-.9 2.4-1.9 3.6-3.1C439.4 268.2 439.2 268.1 439 267.9zM425.4 147.1c.2-8.1-2.8-14.9-8-21.1-9.7-11.4-24.3-20.2-39.2-22.4 1.2 10.7 1.1 21.6 1 32.4-.1 13.4 1.2 26.9.4 40.2-.7 11.3-3.2 22.8-7.7 33.3 6.2 3.9 13.2 10 21.1 8.6 5.3-.9 8.7-6.4 10.9-10.8 5.8-11.5 9.6-24.2 14.7-36 1.6-3.8 3.3-7.9 4.7-12-.2-1.2.1-2.5 1-3.5C424.8 152.8 425.3 149.9 425.4 147.1zM455.5 184.4c-.6-3.7-2.8-7.1-5.1-9.9-2.9-3.7-10.7-12.3-16.7-11-1.2 3.9-2.6 7.7-4.2 11.4-3.2 7.4-6.4 14.7-9.1 22.3-2.6 7.4-5.4 15-10 21.5-.2.3-.4.6-.7.9 7 5 16.2 4.2 23.7-.3 7.8-4.8 13.6-12.8 18-20.7C453.6 194.5 456.3 189.3 455.5 184.4z"/><path fill="#010101" d="M476.6,213.5c-1.5-5.2-5.1-10.6-10.1-12.8c-1-0.4-1.9-0.7-2.8-0.8c6-12.7,2.9-24.6-6.3-35c-5.5-6.2-13.1-11.8-21.1-12.5c0.3-2,0.6-4.1,0.7-6.2c0.5-9.4-3.5-18.2-9-25.5c-11.4-15-31-26.8-49.8-28.7c-0.6-0.1-1.2,0-1.8,0.1c-4.3-19.2-27.1-23.7-43.9-24.8c-9.2-0.6-18.5-0.5-27.5,1.4c-6,1.2-11.8,2.7-17.5,4.9c-2.6,1-5.2,2.3-7.6,3.7c-1.1,0.6-2.1,1.4-3.1,2.2c-0.7,0.6-1.3,1.2-2,1.8c-0.4,0.4-0.6,0.7-0.7,1c-0.1,0.1-0.2,0.2-0.2,0.2c-4.6-9.3-10-18.5-20-22.5c-10.2-4.1-21.5-2-31.6,0.9c-10.8,3-21.1,7.6-32,10.5c-12.8,3.4-25.1,8.3-36.8,14.5c-17.1,9-30.2,22.2-44.9,34.5c-12.8,10.7-28.8,23.2-30.9,41c-0.2,1.9,0.4,3.5,1.4,4.6c-1.8,2.2-2,5.1-1.4,8.3c-5,1.3-9.1,5.5-12.2,9.5C59.4,191.2,55,200,51,208.6c-8,17.3-15.2,36.8-16.9,55.8c-0.8,9.2,1.2,16.7,6.7,22.5c-0.8,1-1.4,2.3-1.3,3.9c0,12.8,0.7,25.6,2.8,38.2c1.9,11,5.3,21.4,8.9,31.9c2.9,8.5,6.2,17.5,12.4,24.2c2.7,2.9,5.8,5.2,9.6,6.5c5.9,2,12.9-1.6,18.9-2.6c0.1,0,0.1,0,0.2,0c-0.9,1.6-1,3.7,0.4,5.7c9.3,13.6,22.6,25,38.3,30.3c2.9,1,7.9,3.3,11,1.9c3.1-1.3,6.2-2.4,9.5-3.2c3.3-0.9,6.7-1.6,10-2.4c0.5,2.5,2.6,4.7,5.9,4.4c2.4-0.2,6.7,1.1,9.8,2.2c5.5,1.9,11,4,16.5,5.8c9.5,3.1,21.8,5.9,30-1.6c3.6-3.3,5.5-8,6.1-13c5.4,1.8,10.8,1.1,13.9-4.2c2.4-4.1,1.4-9.9-0.3-14c-2.2-5.2-6.1-9.5-11.6-11.3c-5.5-1.7-10.8,0.7-15,4.1c-4.6-2.7-10-4.4-15.4-5.4c-0.9-0.6-2-1-3.4-1h-5.3c0.5-11.3-3.5-23.1-12.3-30.3c0.2-0.5,0.5-1.1,0.7-1.6c2.2-5.4,4.1-14.1-0.2-18.8c2.1-1.3,4-2.9,5.7-4.9c4.2-4.7,6.3-10.8,7.2-17c6.6,11.2,37.4,0.7,45.8-1.7c12.6-3.5,24.8-6.3,36.1-13.3c7-4.3,12.5-10.2,17.2-16.8c4.2-5.9,7.9-12.5,14.4-16.1c1.6-0.9,2.9-3.4,2.5-5.2c-0.9-4.3-1.5-8.7-2.1-13.1c5.2-0.6,10.3-1.2,15.5-2c8.3-1.3,17.6-2.3,25.1-6.5c7.5-4.2,13.6-12.1,18.1-20c8.4,5.2,15.6,10.2,26,9.9c2.9-0.1,5.6-0.9,8.1-2.3c8.8,7.7,20.5,8.8,31.2,5.1c-0.5,0.8-0.8,1.8-0.8,2.9c-0.2,5-1.2,9.9-1.4,14.9c-0.7,0.3-1.3,0.7-1.9,1.3c-6,6-10.8,12.7-9.3,21.6c0.2,1.4,0.9,2.6,1.7,3.4c0.1,0.8,0.3,1.7,0.8,2.6c8.2,14.5,27.1,0.4,31.8-10.9c6.8-3,13.1-9.5,16.3-14.5C476.5,242.9,480.4,226.4,476.6,213.5z M226.8,400.7c0.1-0.1,0.6-0.2,0.8-0.2c0.2,0,0.4,0,0.6,0c0,0,0,0,0,0c0.1,0,0.2,0,0.3,0.1c-0.1,0,0.8,0.3,1.2,0.5c0,0,0,0,0.1,0c0.3,0.2,0.6,0.5,0.9,0.7c0.1,0.1,0.2,0.2,0.3,0.3c0.2,0.2,0.3,0.4,0.5,0.7c0.2,0.3,0.9,1.5,0.9,1.6c0.2,0.4,0.4,0.8,0.5,1.3c0.1,0.3,0.4,1.4,0.5,1.6c0,0.3,0.1,0.5,0.1,0.8c-1.6-0.4-3.2-0.3-4.6,0.4c-0.7-2.6-1.8-5-3.3-7C226.1,401.1,226.5,400.8,226.8,400.7z M84.1,378.7c-4.3,1-6.5,2.9-9.5,0.8c-2.9-2-4.8-5-6.6-8c-3.6-6.3-5.6-13.5-7.9-20.4c-6.3-18.7-8.7-37.4-9.1-57c6.2,3.3,12.5,6.2,18.7,9.5c13.6,7.4,27,15.2,41,21.9c16.9,8.1,36.5,16.8,55.7,15.5c0.8-0.1,1.7-0.2,2.5-0.3c0.2,1.5,1.2,2.9,3.2,3.7c0,0.1-0.1,0.2-0.1,0.3c-0.1,1.5-0.6,3-1,4.5c-0.8,2.7-2.4,5.3-4.1,7.6c-4.8,6.3-12.4,8.7-19.4,11.7C127.7,377,104.9,374.1,84.1,378.7z M190.5,398.7c0.2,0,0.4,0,0.6,0c8.2,0.1,19,2,24.6,8.6c3.8,4.5,4.4,16.5-3.1,17.7c-12.3,2-23.6-6.4-35.4-9.8C183.2,411.3,187.8,405.5,190.5,398.7z M180.7,391.1c-1.9,10.6-10.5,15.8-20.1,18.4c-4.3,1.2-8.7,2-13,3.1c-2.4,0.6-4.8,1.4-7.1,2.3c-2,0.8-4.8-0.5-7.4-1.5c-12.7-4.7-23.3-14.3-30.8-25.3c-0.1-0.2-0.2-0.3-0.4-0.5c9.3-0.9,18.6-1.3,27.8-2.6c11.8-1.7,23.1-5.4,33.8-10.8c4.1-2,7.7-4.7,10.7-7.9C180.7,372.1,182.1,383.1,180.7,391.1z M183.2,305c-0.1,6.8-1,14.3-5.7,19.5c-3.5,3.9-9,5-14.4,5.2c-15.5,0.4-31.6-7.1-45.3-13.5c-14.3-6.7-27.9-14.6-41.8-22.2c-6.7-3.7-13.4-7.2-20.3-10.5c-4.5-2.2-9-4.8-10-10.2c-1.2-6.2,0.4-12.9,1.7-18.9c3.2-14.4,7.7-27.1,13.9-40.6c3.1-6.9,6.6-13.8,10.8-20c1.7-2.5,3.7-4.9,5.9-7c0.3-0.2,1.9-1.3,1.6-1.1c0.4-0.2,0.4-0.3,0.4-0.3c0,0,0.1,0.1,0.3,0.1c0.5,0.1,1,0.1,1.4,0.1c1.7,3.2,3.5,6,4.6,7.8c8.3,13.5,17.9,26.3,27.8,38.7c11.3,14.1,23.7,27.5,36.5,40.2c10.7,10.5,22.4,20.1,35.3,27.6C184.5,300.8,183.2,302.5,183.2,305z M276.5,284.6c-10,9.6-23.6,12.8-36.5,16.3c-6.2,1.7-12.4,3.5-18.7,4.9c-0.3-2.3-1.8-4.6-4.4-5.3c-1.3-1.5-3.2-1.9-5.1-1.5c-35.6-11.5-64.4-44.8-86.1-71.1c-8.8-10.6-17-21.8-24.7-33.2c-3.6-5.3-7.1-10.7-9.9-16.5c-0.9-1.8-1.6-3.6-2.2-5.5c2.1-2.3,1.6-6-0.4-8.1c0.1-0.3,0.2-0.7,0.2-1.1c1.4-12.2,11.5-21.3,20.3-28.8c9.9-8.5,19.3-17.7,29.5-25.7c10.3-8,21.7-14.5,33.7-19.5c11.6-4.8,23.8-7.4,35.6-11.7c10.3-3.7,20.7-8,31.8-8.6c12.3-0.7,17.8,7.5,23.1,17.4c12.8,24.1,19.2,51.9,25.2,78.3c3.7,16.1,5.5,32,6.2,48.5c0.6,15.3,0.9,30.7,3.7,45.8C289,265.7,284.5,276.9,276.5,284.6z M365.3,192.7c-2.9,11.9-8.5,23.2-16.9,32.1c-6.4,6.8-14.1,8-23.5,9.6c-6,1-12,1.8-18,2.4c-0.6-8.1-0.8-16.3-1.1-24.4c-0.6-16.5-2.6-32.4-6.2-48.5c-5.4-24.1-11.3-48.6-21.2-71.3c0.4-0.1,0.8-0.2,1.1-0.4c0,0-0.1,0-0.1,0.1c2.8-0.2,4.5-2,5-4.1c1.2-1,2.4-1.9,4.1-2.7c5.5-2.7,11.6-4.1,17.5-5.4c8.2-1.8,17-2,25.4-1.4c9.3,0.6,18.9,2.2,27.1,6.8c8.9,5.1,8.2,17.4,8.7,26.3c1,14.8,0.2,29.6,0.4,44.4C367.8,168.7,368.3,180.3,365.3,192.7z M392.9,218c-7.9,1.4-14.8-4.7-21.1-8.6c4.5-10.5,7-21.9,7.7-33.3c0.8-13.3-0.5-26.9-0.4-40.2c0.1-10.8,0.1-21.6-1-32.4c14.9,2.2,29.6,11,39.2,22.4c5.2,6.2,8.2,12.9,8,21.1c-0.1,2.9-0.5,5.8-1.3,8.6c-0.9,1-1.2,2.3-1,3.5c-1.3,4.1-3,8.2-4.7,12c-5.1,11.9-8.9,24.5-14.7,36C401.6,211.7,398.2,217.1,392.9,218z M409.6,219.7c0.2-0.3,0.5-0.6,0.7-0.9c4.6-6.5,7.4-14,10-21.5c2.7-7.6,5.9-14.9,9.1-22.3c1.6-3.8,3-7.6,4.2-11.4c6-1.3,13.8,7.3,16.7,11c2.3,2.8,4.5,6.2,5.1,9.9c0.9,4.9-1.9,10.1-4.2,14.2c-4.3,8-10.2,16-18,20.7C425.9,223.9,416.7,224.7,409.6,219.7z M436.1,271.5c-1.4,1-2.8,1.7-4.4,2.2c-1,0.3-0.5,0.1-1-0.8c-0.2-0.4-0.4-0.7-0.7-1c-0.4-3.9,1.1-6.6,3.4-9.3c1.5,2.1,3.4,3.9,5.5,5.3c0.2,0.2,0.5,0.3,0.7,0.4C438.6,269.5,437.3,270.6,436.1,271.5z M466.2,226.7c-0.7,8.5-3.4,17.3-8.9,24c-3,3.6-11.5,11.5-14.9,4.6c-3-6,0.1-14.2,0.3-20.6c0.1-3-1.8-4.7-4-5.1c5.7-3.3,10.6-7.9,14.8-13.2c2.6,1.1,5.9,0.7,7.6-2.5c0.4-0.8,0.8-1.6,1.4-2.2c1,0.7,1.8,2.5,2.3,3.4C466.5,218.7,466.5,222.8,466.2,226.7z"/><path fill="#010101" d="M164.8 173c-.2-3.3-3.1-5.4-6.2-5.3-1.1 0-2.3.4-3.3.9-1.1.5-2.2 1-3.2 1.7-.6.4-1.1.8-1.6 1.3-1.8 1.7-2 5.2-.5 7.2 1 1.3 2.1 2 3.7 2.5 1.1.3 2.1 0 3.1-.2.3-.1.7-.3 1-.4.4-.2.9-.4 1.3-.7.3-.2.5-.4.8-.6C162.8 178.8 165 175.9 164.8 173zM191.2 121.9c-1.2-1-2.7-1.5-4.3-1.4-1.5.1-2.9.8-3.9 2-1.1 1.2-1.4 2.7-1.4 4.3v2.9c0 1.4.9 3 2 3.9 1.2 1 2.7 1.5 4.3 1.4 1.5-.1 2.9-.8 3.9-2 1.1-1.2 1.4-2.7 1.4-4.3v-2.9C193.2 124.4 192.3 122.8 191.2 121.9zM194.9 196.1c-7.5 0-6.5 11.6.9 11.6C203.2 207.6 202.3 196.1 194.9 196.1zM257.9 171.4c-.1-1.5-.8-2.9-2-3.9-.6-.5-1.2-.9-1.9-1.1-.1-.1-.1-.1-.2-.2-.4-.3-1.1-.9-1.7-1.1-1.5-.6-2-.6-3.6-.7-1.4-.1-3 .9-3.9 2-1 1.2-1.5 2.7-1.4 4.3.1 1.5.8 2.9 2 3.9.6.5 1.2.9 1.9 1.1.1.1.1.1.2.2.4.3 1.1.8 1.7 1.1 1.5.6 2 .6 3.6.7 1.4.1 3-.9 3.9-2C257.5 174.5 258.1 172.9 257.9 171.4zM218.6 118.7c-7.5 0-6.5 11.6.9 11.6C226.9 130.2 226 118.7 218.6 118.7zM210.6 171.4c-.1-1.5-.8-2.9-2-3.9-1.2-1.1-2.7-1.4-4.3-1.4h-1.6c-1.4 0-3 .9-3.9 2-1 1.2-1.5 2.7-1.4 4.3.1 1.5.8 2.9 2 3.9 1.2 1.1 2.7 1.4 4.3 1.4h1.6c1.4 0 3-.9 3.9-2C210.2 174.5 210.7 172.9 210.6 171.4zM161.6 154c-.1-1.5-.8-2.9-2-3.9-1.2-1.1-2.7-1.4-4.3-1.4-1.3 0-2.6.1-3.8.6-1.1.5-2.3 1.1-3 2.1-1 1.3-1 1.4-1.5 3-.2.7-.2 1.4-.2 2.2-.1 1.4.9 3 2 3.9 1.2 1 2.7 1.5 4.3 1.4 1.3-.1 2.6-.7 3.5-1.6 1.3-.1 2.7-1 3.5-1.9C161.2 157.1 161.7 155.6 161.6 154z"/></svg>