<?xml version="1.0" standalone="no"?>
<svg version="1.0" xmlns="http://www.w3.org/2000/svg"
 width="512.000000pt" height="512.000000pt" viewBox="0 0 512.000000 512.000000"
 preserveAspectRatio="xMidYMid meet">

    <g transform="translate(0.000000,512.000000) scale(0.100000,-0.100000)" stroke="none">
        <path d="M559 4982 c-98 -51 -129 -126 -129 -307 l0 -92 -61 -7 c-163 -17 -277 -132 -287 -291 -11 -175 110 -312 285 -323 l73 -5 0 -212 0 -212 -69 -6 c-88 -7 -154 -40 -214 -107 -58 -65 -80 -129 -75 -218 9 -160 127 -278 289 -290 l69 -5 0 -213 0 -214 -55 0 c-176 0 -314 -148 -303 -325 11 -161 126 -276 293 -292 l65 -6 0 -207 0 -208 -62 -7 c-119 -13 -210 -71 -264 -167 -26 -48 -29 -62 -29 -143 0 -74 4 -97 23 -133 55 -103 147 -163 270 -177 l62 -7 0 -261 c0 -144 5 -280 10 -301 14 -63 59 -118 119 -148 l55 -28 1640 0 1641 0 51 24 c56 26 98 74 120 133 11 31 13 276 14 1328 l0 1290 451 450 c248 248 464 470 480 494 33 51 37 96 14 145 -20 42 -482 502 -518 515 -37 14 -102 14 -130 0 -12 -6 -86 -75 -164 -152 l-143 -142 0 329 c0 231 -4 341 -12 370 -17 55 -91 131 -143 145 -28 8 -523 11 -1676 11 l-1637 0 -53 -28z m3330 -137 c16 -8 31 -22 35 -30 3 -9 6 -195 6 -414 l0 -397 -606 -605 c-333 -332 -610 -612 -615 -621 -5 -10 -47 -183 -93 -385 -89 -390 -90 -397 -42 -428 24 -16 40 -14 363 60 186 42 358 81 383 87 41 10 71 37 328 292 l282 281 -2 -1187 -3 -1187 -23 -23 -23 -23 -1592 -3 c-875 -1 -1607 0 -1625 3 -17 3 -41 16 -52 27 -19 21 -20 36 -20 290 l0 268 104 0 104 0 16 -40 c22 -55 90 -126 151 -158 42 -23 62 -27 130 -26 67 0 89 5 132 27 119 61 178 165 171 297 -5 95 -41 166 -110 221 -162 127 -403 67 -474 -118 l-17 -43 -98 0 -99 0 0 440 0 440 103 0 102 0 19 -45 c23 -58 88 -124 151 -155 73 -36 189 -35 261 2 140 73 203 225 158 378 -23 78 -116 169 -198 194 -152 48 -314 -26 -373 -170 l-18 -44 -102 0 -103 0 0 435 0 435 104 0 103 0 17 -43 c9 -24 35 -63 58 -86 148 -154 396 -117 496 73 23 43 27 64 27 136 0 70 -4 94 -25 135 -69 141 -235 210 -383 159 -66 -22 -139 -91 -168 -159 l-24 -55 -102 0 -103 0 0 440 0 440 104 0 103 0 17 -44 c22 -57 81 -118 148 -153 70 -36 179 -39 249 -6 64 29 125 87 157 147 23 43 27 64 27 136 0 98 -23 158 -85 220 -62 62 -122 85 -220 85 -72 0 -93 -4 -136 -27 -62 -33 -114 -89 -140 -151 l-19 -47 -102 0 -103 0 0 343 c0 360 0 361 45 385 14 8 481 11 1618 12 1383 0 1602 -2 1626 -15z m-3449 -564 l0 -148 -40 -7 c-108 -17 -198 99 -155 200 30 72 75 103 153 104 l42 0 0 -149z m4230 -196 l215 -215 -130 -130 -130 -130 -217 217 -218 218 127 127 c70 71 130 128 133 128 3 0 102 -97 220 -215z m-3485 85 c43 -27 69 -76 69 -132 0 -149 -206 -204 -284 -76 -23 39 -26 107 -6 146 44 85 140 112 221 62z m2980 -310 l80 -80 -598 -598 -597 -597 -82 83 -83 82 595 595 c327 327 597 595 600 595 3 0 41 -36 85 -80z m-247 -957 l-598 -598 -80 80 -80 80 597 597 598 598 80 -80 80 -80 -597 -597z m-3478 338 l0 -148 -39 -7 c-72 -11 -128 25 -157 101 -38 100 39 202 154 203 l42 0 0 -149z m726 -100 c55 -25 88 -79 88 -143 0 -149 -206 -204 -284 -76 -49 81 -3 201 86 228 44 13 65 11 110 -9z m1828 -730 c135 -135 165 -170 150 -174 -92 -26 -416 -99 -420 -94 -7 6 87 437 95 437 3 0 82 -76 175 -169z m-2554 -200 l0 -149 -44 -6 c-53 -8 -90 8 -129 53 -82 98 0 251 135 251 l38 0 0 -149z m745 -112 c84 -50 94 -167 20 -239 -30 -29 -43 -34 -92 -37 -46 -3 -65 0 -91 16 -85 54 -97 178 -24 244 50 46 127 52 187 16z m-745 -939 l0 -150 -42 0 c-53 0 -121 30 -141 62 -23 34 -30 92 -18 131 21 63 85 104 169 106 l32 1 0 -150z m702 -80 c79 -22 129 -110 109 -188 -6 -21 -26 -53 -46 -72 -30 -29 -43 -34 -92 -37 -68 -5 -111 16 -143 69 -24 39 -26 107 -5 148 23 44 80 83 130 89 6 0 27 -4 47 -9z"/>
        <path d="M1862 4227 c-28 -30 -29 -80 -2 -107 20 -20 33 -20 809 -20 l790 0 20 26 c28 35 26 69 -4 99 l-24 25 -784 0 -784 0 -21 -23z"/>
        <path d="M1860 3420 c-28 -28 -26 -81 3 -108 23 -22 24 -22 496 -22 l472 0 24 25 c30 30 32 64 4 99 l-20 26 -480 0 c-466 0 -480 -1 -499 -20z"/>
        <path d="M1880 2627 c-51 -26 -51 -108 0 -134 17 -9 83 -13 216 -13 179 0 193 1 218 21 37 29 37 89 0 118 -25 20 -39 21 -218 21 -133 0 -199 -4 -216 -13z"/>
        <path d="M1862 1807 c-29 -31 -29 -77 1 -105 23 -21 30 -22 270 -22 234 0 248 1 267 20 28 28 26 75 -5 105 l-24 25 -244 0 c-242 0 -244 0 -265 -23z"/>
        <path d="M1860 1000 c-28 -28 -26 -81 3 -108 l23 -22 666 0 c624 0 667 1 688 18 31 25 32 88 1 113 -22 18 -53 19 -692 19 -656 0 -669 0 -689 -20z"/>
    </g>
</svg>
