<svg xmlns="http://www.w3.org/2000/svg"  viewBox="0 0 100 100" width="100px" height="100px"><path fill="#fef6aa" d="M82.69,59.98l-8.53,3.07l-34.7,12.49l-15.31,5.52L15.97,84l21-58.13l3.08-8.53 c0.37-1.05,1.54-1.61,2.59-1.21c18.93,7.26,34,22.32,41.26,41.25C84.3,58.43,83.74,59.6,82.69,59.98z"/><path fill="#eaa871" d="M49.231,32.388c1.014,0.649,2.003,1.319,2.976,2.027l0.279-0.386 c9.896,7.204,17.592,17.338,21.671,29.022l8.53-3.074c0.518-0.187,0.93-0.565,1.159-1.065c0.223-0.488,0.24-1.031,0.05-1.527 C76.629,38.429,61.59,23.392,42.638,16.13c-0.497-0.19-1.037-0.173-1.526,0.052c-0.501,0.229-0.879,0.641-1.064,1.157l-3.239,9.001 c1.87,0.653,3.694,1.409,5.479,2.243l0.206-0.439c0.334,0.156,0.677,0.296,1.007,0.458l-0.22,0.451 c1.005,0.492,2.002,1.007,2.976,1.554l0.24-0.43c1.016,0.572,2.016,1.172,2.996,1.8L49.231,32.388z"/><path fill="#ceccbe" d="M43.61,74.04c-0.03-0.11-0.05-0.23-0.07-0.36c-0.63-4.6,2.1-8.7,2.37-9.1 c0.46-0.65,1.21-1.08,2.06-1.08c1.38,0,2.5,1.12,2.5,2.5c0,0.5-0.41,1.4-0.4,2.46c0,0,2.8-1.39,3.6-1.71 c1.8-0.72,3.83,0.15,4.55,1.95c0.01,0.03,0.02,0.05,0.03,0.08L43.61,74.04z"/><path fill="#1f212b" d="M43.128,74.173c-0.035-0.128-0.06-0.267-0.082-0.418c-0.633-4.617,1.93-8.686,2.45-9.455 c0.578-0.817,1.501-1.3,2.474-1.3c1.654,0,3,1.346,3,3c0,0.263-0.074,0.56-0.16,0.903c-0.056,0.224-0.115,0.463-0.161,0.714 c0.897-0.439,2.294-1.115,2.836-1.332c0.993-0.398,2.082-0.386,3.063,0.035c0.98,0.42,1.739,1.2,2.137,2.194 c0.004,0.01,0.038,0.099,0.042,0.109l-0.951,0.312c-0.317-0.796-0.887-1.381-1.621-1.696c-0.733-0.313-1.549-0.324-2.298-0.025 c-0.771,0.309-3.535,1.68-3.563,1.693c-0.154,0.077-0.337,0.068-0.484-0.021c-0.146-0.09-0.236-0.249-0.238-0.421 c-0.007-0.697,0.146-1.311,0.27-1.804c0.066-0.268,0.13-0.521,0.13-0.661c0-1.103-0.897-2-2-2c-0.649,0-1.267,0.325-1.651,0.869 c-0.291,0.43-2.877,4.404-2.283,8.743c0.016,0.102,0.032,0.203,0.058,0.295L43.128,74.173z"/><path fill="#f15b6c" d="M42.5 34.5A7 7 0 1 0 42.5 48.5A7 7 0 1 0 42.5 34.5Z"/><path fill="#1f212b" d="M42.5,49c-4.136,0-7.5-3.364-7.5-7.5s3.364-7.5,7.5-7.5s7.5,3.364,7.5,7.5S46.636,49,42.5,49z M42.5,35c-3.584,0-6.5,2.916-6.5,6.5s2.916,6.5,6.5,6.5s6.5-2.916,6.5-6.5S46.084,35,42.5,35z"/><path fill="#f15b6c" d="M39.5,75.54c-0.24-4.48-3.942-8.04-8.495-8.04c-4.693,0-8.505,3.81-8.505,8.5 c0,1.9,0.63,3.65,1.681,5.06L39.5,75.54z"/><path fill="#1f212b" d="M24.061,81.635l-0.312-0.319C22.605,79.763,22,77.924,22,76c0-4.962,4.039-9,9.005-9 c4.698,0,8.643,3.661,8.984,8.334C39.998,75.378,40,75.467,40,75.54v0.351L24.061,81.635z M31.005,68 c-4.414,0-8.004,3.589-8.004,8c0,1.603,0.472,3.138,1.369,4.461l14.605-5.263C38.547,71.124,35.097,68,31.005,68z"/><path fill="#1f212b" d="M15.973,85c-0.261,0-0.517-0.102-0.707-0.293c-0.274-0.274-0.365-0.682-0.233-1.046L39.105,17 c0.273-0.76,0.853-1.39,1.588-1.727s1.553-0.365,2.302-0.077c19.217,7.363,34.466,22.609,41.836,41.83 c0.287,0.75,0.261,1.567-0.076,2.301c-0.342,0.747-0.955,1.311-1.729,1.59L16.312,84.941C16.201,84.98,16.086,85,15.973,85z M41.938,17c-0.139,0-0.278,0.031-0.411,0.091c-0.253,0.116-0.445,0.325-0.54,0.587l-23.351,64.66l64.713-23.303 c0.263-0.095,0.472-0.287,0.588-0.541c0.111-0.242,0.12-0.509,0.027-0.753c-7.167-18.69-21.996-33.517-40.684-40.678 C42.169,17.021,42.054,17,41.938,17z"/><path fill="#1f212b" d="M74.158 63.551c-.207 0-.4-.129-.472-.335C69.64 51.627 62.212 41.668 52.207 34.415c-.224-.162-.274-.475-.112-.698.164-.224.479-.273.698-.111 10.173 7.373 17.724 17.498 21.837 29.281.092.261-.046.546-.307.637C74.269 63.542 74.213 63.551 74.158 63.551zM49.5 32.466c-.093 0-.186-.025-.269-.078-.411-.262-.824-.519-1.24-.771-.572-.347-1.15-.683-1.735-1.009-.241-.135-.327-.439-.192-.68.135-.242.44-.327.681-.193.595.333 1.185.674 1.766 1.027.423.256.842.517 1.259.783.233.148.302.458.153.69C49.826 32.384 49.665 32.466 49.5 32.466zM43.5 29.104c-.074 0-.148-.016-.22-.051-.266-.129-.533-.255-.802-.381l-.191-.089c-.249-.117-.357-.415-.239-.665.117-.25.413-.357.665-.24l.189.089c.273.127.547.255.817.388.248.121.351.42.229.668C43.862 29.001 43.685 29.104 43.5 29.104z"/><g><path d="M34.473,53.5c-2.761,0-5,2.239-5,5s2.239,5,5,5s5-2.239,5-5S37.234,53.5,34.473,53.5z M34.473,60.5c-1.104,0-2-0.895-2-2 s0.896-2,2-2s2,0.895,2,2S35.577,60.5,34.473,60.5z"/><path fill="#1f212b" d="M34.5,64c-3.032,0-5.5-2.467-5.5-5.5s2.468-5.5,5.5-5.5s5.5,2.467,5.5,5.5S37.532,64,34.5,64z M34.5,54c-2.481,0-4.5,2.019-4.5,4.5s2.019,4.5,4.5,4.5s4.5-2.019,4.5-4.5S36.981,54,34.5,54z M34.5,61 c-1.379,0-2.5-1.122-2.5-2.5s1.121-2.5,2.5-2.5s2.5,1.122,2.5,2.5S35.879,61,34.5,61z M34.5,57c-0.827,0-1.5,0.673-1.5,1.5 s0.673,1.5,1.5,1.5s1.5-0.673,1.5-1.5S35.327,57,34.5,57z"/></g><g><path d="M55.5,44.5c-2.761,0-5,2.239-5,5s2.239,5,5,5s5-2.239,5-5S58.262,44.5,55.5,44.5z M55.5,51.5c-1.104,0-2-0.895-2-2 s0.896-2,2-2s2,0.895,2,2S56.605,51.5,55.5,51.5z"/><path fill="#1f212b" d="M55.5,55c-3.032,0-5.5-2.467-5.5-5.5s2.468-5.5,5.5-5.5s5.5,2.467,5.5,5.5S58.532,55,55.5,55z M55.5,45c-2.481,0-4.5,2.019-4.5,4.5s2.019,4.5,4.5,4.5s4.5-2.019,4.5-4.5S57.981,45,55.5,45z M55.5,52 c-1.379,0-2.5-1.122-2.5-2.5s1.121-2.5,2.5-2.5s2.5,1.122,2.5,2.5S56.879,52,55.5,52z M55.5,48c-0.827,0-1.5,0.673-1.5,1.5 s0.673,1.5,1.5,1.5s1.5-0.673,1.5-1.5S56.327,48,55.5,48z"/></g><g><path fill="#a1d3a2" d="M52.499,59.737c0,0-0.985-10.069-11.025-6.454C42.556,63.759,52.499,59.737,52.499,59.737z"/><path fill="#1f212b" d="M48.429,61c-1.273,0-2.662-0.242-3.907-0.99c-2.003-1.204-3.187-3.45-3.519-6.675 c-0.023-0.228,0.111-0.443,0.327-0.521c3.193-1.153,5.853-1.081,7.906,0.214c3.278,2.071,3.743,6.474,3.762,6.661 c0.021,0.22-0.104,0.428-0.311,0.511C52.565,60.249,50.675,61,48.429,61z M42.043,53.625c0.348,2.682,1.354,4.54,2.991,5.527 c2.489,1.498,5.814,0.612,6.911,0.252c-0.186-1.061-0.903-4.057-3.248-5.534C46.997,52.799,44.757,52.717,42.043,53.625z"/></g><g><path fill="#a1d3a2" d="M64.928,55.5c0,0-7.552,0.803-4.839,9C67.944,63.615,64.928,55.5,64.928,55.5z"/><path fill="#1f212b" d="M60.089,65c-0.214,0-0.406-0.136-0.474-0.343c-0.911-2.75-0.809-5.017,0.301-6.739 c1.632-2.534,4.824-2.901,4.96-2.915c0.225-0.023,0.442,0.109,0.521,0.323c0.061,0.166,1.486,4.086-0.27,6.945 c-0.95,1.544-2.625,2.461-4.981,2.727C60.126,64.999,60.108,65,60.089,65z M64.584,56.066c-0.833,0.176-2.773,0.749-3.833,2.399 c-0.882,1.376-0.987,3.219-0.311,5.484c1.817-0.28,3.106-1.02,3.833-2.2C65.482,59.785,64.874,57.07,64.584,56.066z"/></g></svg>