<?xml version="1.0" standalone="no"?>
<!DOCTYPE svg PUBLIC "-//W3C//DTD SVG 20010904//EN"
 "http://www.w3.org/TR/2001/REC-SVG-20010904/DTD/svg10.dtd">
<svg version="1.0" xmlns="http://www.w3.org/2000/svg"
 width="512.000000pt" height="512.000000pt" viewBox="0 0 512.000000 512.000000"
 preserveAspectRatio="xMidYMid meet">

<g transform="translate(0.000000,512.000000) scale(0.100000,-0.100000)" stroke="none">
<path d="M2060 4783 c-46 -186 -86 -345 -91 -354 -4 -9 -43 -29 -86 -44 -43
-16 -109 -43 -147 -61 -63 -30 -71 -32 -95 -19 -14 8 -152 90 -306 183 l-280
170 -296 -295 -297 -296 174 -289 c96 -159 178 -298 184 -307 7 -14 0 -37 -25
-90 -19 -40 -47 -106 -61 -147 -15 -41 -34 -79 -43 -83 -9 -5 -168 -45 -353
-91 l-338 -82 0 -418 0 -418 337 -82 c186 -46 345 -86 354 -91 9 -4 29 -43 44
-86 16 -43 43 -109 61 -147 25 -51 31 -73 24 -87 -6 -9 -88 -148 -184 -307
l-174 -289 297 -296 296 -295 280 170 c154 93 292 175 306 183 24 13 32 11 95
-19 38 -18 104 -45 147 -61 43 -15 82 -35 86 -44 5 -9 45 -168 91 -354 l82
-337 418 0 418 0 82 337 c46 186 86 345 91 354 4 9 43 29 86 44 43 16 109 43
147 61 63 30 71 32 95 19 14 -8 152 -90 306 -183 l280 -170 296 295 297 296
-174 289 c-96 159 -178 298 -184 307 -7 14 -1 36 24 87 18 38 45 104 61 147
15 43 35 82 44 86 9 5 168 45 354 91 l337 82 0 418 0 418 -337 82 c-186 46
-345 86 -354 91 -9 4 -28 42 -43 83 -14 41 -42 107 -61 147 -25 53 -32 76 -25
90 6 9 88 148 184 307 l174 289 -297 296 -296 295 -280 -170 c-154 -93 -292
-175 -306 -183 -24 -13 -32 -11 -95 19 -38 18 -104 45 -147 61 -43 15 -82 35
-86 44 -5 9 -45 168 -91 354 l-82 337 -418 0 -418 0 -82 -337z m763 -290 c53
-215 83 -323 92 -323 44 0 288 -91 404 -151 73 -38 138 -69 143 -69 6 0 134
75 286 166 l276 165 128 -129 129 -128 -162 -270 c-89 -148 -164 -275 -166
-282 -3 -7 22 -65 55 -130 70 -135 108 -231 142 -354 l24 -87 321 -78 320 -79
0 -184 0 -184 -322 -79 c-215 -53 -323 -83 -323 -92 0 -44 -91 -288 -151 -404
-38 -73 -69 -138 -69 -143 0 -6 75 -134 166 -286 l165 -276 -129 -128 -128
-129 -276 165 c-152 91 -281 166 -286 166 -5 0 -66 -29 -135 -65 -109 -57
-369 -155 -411 -155 -10 0 -36 -89 -93 -322 l-79 -323 -184 0 -184 0 -79 323
c-53 214 -83 322 -92 322 -44 0 -288 91 -404 151 -73 38 -138 69 -143 69 -6 0
-134 -75 -286 -166 l-276 -165 -128 129 -129 128 165 276 c91 152 166 281 166
286 0 5 -29 66 -65 135 -57 109 -155 369 -155 411 0 10 -89 36 -322 93 l-323
79 0 184 0 184 322 79 c215 53 323 83 323 92 0 44 91 288 151 404 38 73 69
138 69 143 0 6 -75 134 -166 286 l-165 276 129 128 128 129 270 -162 c148 -89
274 -163 281 -166 7 -3 81 29 165 71 138 68 288 125 375 142 l32 6 77 317 c42
174 79 319 81 324 2 4 86 6 186 5 l181 -3 79 -322z"/>
<path d="M2390 3595 c-404 -71 -725 -358 -838 -750 -160 -552 165 -1132 723
-1293 552 -160 1132 165 1293 723 175 606 -232 1230 -865 1324 -93 14 -219 12
-313 -4z m355 -308 c269 -75 478 -288 546 -557 8 -31 14 -105 14 -170 0 -123
-12 -188 -53 -285 -93 -219 -290 -387 -522 -446 -71 -18 -269 -18 -340 0 -232
59 -429 227 -522 446 -41 97 -53 162 -53 285 0 123 12 188 53 285 93 220 305
400 522 444 30 6 64 13 75 15 37 9 229 -3 280 -17z"/>
</g>
</svg>
