<?xml version="1.0" standalone="no"?>
<!DOCTYPE svg PUBLIC "-//W3C//DTD SVG 20010904//EN"
 "http://www.w3.org/TR/2001/REC-SVG-20010904/DTD/svg10.dtd">
<svg version="1.0" xmlns="http://www.w3.org/2000/svg"
 width="512.000000pt" height="512.000000pt" viewBox="0 0 512.000000 512.000000"
 preserveAspectRatio="xMidYMid meet">

<g transform="translate(0.000000,512.000000) scale(0.100000,-0.100000)"
fill="#000000" stroke="none">
<path d="M906 4995 c-70 -29 -137 -90 -174 -160 l-27 -50 -5 -1805 -5 -1805
-329 -3 c-293 -2 -332 -4 -348 -19 -18 -16 -19 -36 -16 -378 3 -341 4 -363 24
-412 50 -122 154 -215 276 -247 58 -16 198 -17 1783 -14 l1720 3 58 29 c70 36
120 89 156 165 l26 56 3 1798 2 1797 334 0 c275 0 336 2 345 14 9 10 11 114 9
388 l-3 373 -28 57 c-43 88 -107 152 -195 195 l-76 38 -1735 2 -1736 3 -59
-25z m3110 -130 c-15 -19 -39 -61 -54 -93 l-27 -57 -5 -2170 c-5 -2094 -6
-2171 -24 -2208 -21 -42 -66 -84 -113 -104 -27 -11 -302 -13 -1564 -13 l-1531
0 27 31 c30 37 57 87 76 144 11 33 15 428 19 2206 l5 2166 29 41 c18 26 47 51
79 67 l51 25 1529 0 1529 0 -26 -35z m417 19 c62 -21 135 -87 163 -149 23 -49
24 -56 24 -357 l0 -308 -285 0 -285 0 0 293 c0 160 5 308 10 327 43 157 217
247 373 194z m-3735 -4136 c-3 -294 -4 -305 -27 -356 -50 -111 -165 -179 -286
-170 -115 10 -205 77 -245 186 -18 48 -20 78 -20 347 l0 295 291 0 291 0 -4
-302z"/>
<path d="M1298 4529 c-24 -13 -24 -71 0 -92 15 -13 46 -17 171 -19 l154 -3 32
-105 c18 -58 58 -190 90 -295 31 -104 83 -275 116 -379 32 -103 59 -193 59
-200 0 -6 -13 -19 -29 -28 -61 -34 -89 -145 -57 -222 20 -48 74 -86 133 -93
l49 -5 -4 -53 c-9 -114 65 -198 176 -199 73 0 126 25 160 77 23 34 27 52 27
109 l0 68 116 0 117 0 0 -63 c0 -97 46 -163 130 -187 46 -12 58 -12 104 0 84
24 131 90 131 187 0 60 1 63 23 63 29 0 64 33 64 60 0 11 -9 29 -20 40 -19 19
-33 20 -541 20 -339 0 -527 4 -540 10 -20 11 -26 54 -11 78 7 10 117 13 534
12 496 0 527 1 548 18 16 13 33 52 56 133 18 63 63 218 99 344 69 237 87 344
66 384 -7 12 -27 31 -44 41 -31 19 -56 20 -719 20 l-687 0 -41 130 c-22 71
-48 136 -56 145 -13 12 -47 15 -202 15 -108 0 -194 -5 -204 -11z m1842 -415
c0 -8 -5 -35 -11 -60 l-11 -44 -622 0 -622 0 -11 43 c-7 23 -15 50 -18 60 -7
16 28 17 644 17 583 0 651 -2 651 -16z m-65 -246 c-3 -13 -16 -59 -29 -103
l-23 -80 -523 0 -523 0 -28 90 c-16 50 -29 96 -29 103 0 9 123 12 580 12 l580
0 -5 -22z m-90 -325 c-3 -10 -11 -37 -18 -60 l-11 -43 -451 0 -451 0 -17 53
c-9 30 -17 57 -17 60 0 4 219 7 486 7 459 0 486 -1 479 -17z m-745 -473 c20
-20 26 -65 12 -86 -13 -21 -52 -34 -77 -28 -30 7 -45 31 -45 73 0 55 70 81
110 41z m599 -6 c12 -15 21 -35 21 -46 0 -25 -44 -68 -70 -68 -26 0 -70 43
-70 68 0 33 38 72 70 72 19 0 36 -9 49 -26z"/>
<path d="M1725 2650 c-11 -4 -78 -67 -150 -139 l-129 -130 -62 59 c-34 33 -71
60 -81 60 -27 0 -63 -36 -63 -64 0 -27 178 -206 206 -206 27 0 364 339 364
366 0 13 -12 32 -26 43 -29 23 -30 23 -59 11z"/>
<path d="M1977 2482 c-21 -23 -22 -52 -3 -78 14 -19 34 -19 766 -19 732 0 752
0 766 19 18 26 18 61 -2 80 -14 14 -97 16 -763 16 -712 0 -749 -1 -764 -18z"/>
<path d="M1588 1833 l-138 -138 -52 52 c-74 71 -94 80 -127 56 -49 -37 -41
-57 60 -159 68 -68 100 -94 118 -94 19 0 67 42 193 168 103 104 168 176 168
188 0 32 -29 64 -58 64 -21 0 -56 -29 -164 -137z"/>
<path d="M1976 1798 c-21 -30 -20 -54 4 -78 20 -20 33 -20 760 -20 727 0 740
0 760 20 25 25 26 62 2 83 -17 16 -84 17 -765 17 l-746 0 -15 -22z"/>
<path d="M1590 1155 c-74 -74 -139 -135 -145 -135 -6 0 -35 25 -65 55 -59 60
-93 70 -123 37 -33 -36 -21 -62 71 -154 70 -70 94 -88 117 -88 24 0 57 28 192
163 90 89 166 172 170 185 8 33 -22 72 -55 72 -22 0 -54 -27 -162 -135z"/>
<path d="M1980 1120 c-11 -11 -20 -29 -20 -40 0 -11 9 -29 20 -40 20 -20 33
-20 763 -20 708 0 745 1 760 18 22 24 21 65 -1 85 -17 16 -84 17 -760 17 -729
0 -742 0 -762 -20z"/>
<path d="M4669 3652 c-104 -35 -176 -99 -222 -200 l-22 -47 -3 -1316 -2 -1315
71 -155 c157 -339 222 -475 237 -492 20 -22 64 -22 85 1 16 18 49 87 213 441
l94 204 -2 1316 -3 1316 -27 57 c-74 159 -259 243 -419 190z m220 -139 c27
-17 58 -48 76 -77 27 -45 30 -59 33 -148 l4 -98 -232 0 -232 0 4 98 c3 84 7
104 31 144 66 113 205 149 316 81z m111 -1553 l0 -1110 -230 0 -230 0 0 1110
0 1110 230 0 230 0 0 -1110z m-40 -1239 c0 -5 -18 -47 -40 -92 l-40 -82 -109
-1 -109 -1 -41 83 c-23 45 -41 87 -41 92 0 6 72 10 190 10 110 0 190 -4 190
-9z m-140 -295 c0 -2 -11 -28 -24 -57 l-23 -54 -27 52 c-14 29 -26 55 -26 58
0 3 23 5 50 5 28 0 50 -2 50 -4z"/>
<path d="M4732 2954 l-22 -15 0 -983 c0 -1082 -4 -1011 62 -1004 23 2 36 10
45 28 10 20 12 227 10 988 l-2 964 -24 19 c-28 23 -40 24 -69 3z"/>
</g>
</svg>
